<?xml version="1.0" standalone="no"?>
<svg xmlns:xlink="http://www.w3.org/1999/xlink" id="wave" style="transform:rotate(0deg); transition: 0.3s" viewBox="0 0 1440 490" version="1.1" xmlns="http://www.w3.org/2000/svg"><defs><linearGradient id="sw-gradient-0" x1="0" x2="0" y1="1" y2="0"><stop stop-color="rgba(64.07, 64.048, 64.048, 1)" offset="0%"/><stop stop-color="rgba(20.808, 50.627, 130.097, 1)" offset="100%"/></linearGradient></defs><path style="transform:translate(0, 0px); opacity:1" fill="url(#sw-gradient-0)" d="M0,441L34.3,441C68.6,441,137,441,206,383.8C274.3,327,343,212,411,163.3C480,114,549,131,617,155.2C685.7,180,754,212,823,187.8C891.4,163,960,82,1029,73.5C1097.1,65,1166,131,1234,130.7C1302.9,131,1371,65,1440,106.2C1508.6,147,1577,294,1646,294C1714.3,294,1783,147,1851,89.8C1920,33,1989,65,2057,89.8C2125.7,114,2194,131,2263,171.5C2331.4,212,2400,278,2469,302.2C2537.1,327,2606,310,2674,261.3C2742.9,212,2811,131,2880,155.2C2948.6,180,3017,310,3086,302.2C3154.3,294,3223,147,3291,73.5C3360,0,3429,0,3497,65.3C3565.7,131,3634,261,3703,269.5C3771.4,278,3840,163,3909,122.5C3977.1,82,4046,114,4114,138.8C4182.9,163,4251,180,4320,196C4388.6,212,4457,229,4526,196C4594.3,163,4663,82,4731,89.8C4800,98,4869,196,4903,245L4937.1,294L4937.1,490L4902.9,490C4868.6,490,4800,490,4731,490C4662.9,490,4594,490,4526,490C4457.1,490,4389,490,4320,490C4251.4,490,4183,490,4114,490C4045.7,490,3977,490,3909,490C3840,490,3771,490,3703,490C3634.3,490,3566,490,3497,490C3428.6,490,3360,490,3291,490C3222.9,490,3154,490,3086,490C3017.1,490,2949,490,2880,490C2811.4,490,2743,490,2674,490C2605.7,490,2537,490,2469,490C2400,490,2331,490,2263,490C2194.3,490,2126,490,2057,490C1988.6,490,1920,490,1851,490C1782.9,490,1714,490,1646,490C1577.1,490,1509,490,1440,490C1371.4,490,1303,490,1234,490C1165.7,490,1097,490,1029,490C960,490,891,490,823,490C754.3,490,686,490,617,490C548.6,490,480,490,411,490C342.9,490,274,490,206,490C137.1,490,69,490,34,490L0,490Z"/></svg>